<svg xmlns="http://www.w3.org/2000/svg" viewBox="0 0 176.44 76.48"><defs><style>.cls-1{fill:none;stroke:#f92a82;stroke-miterlimit:10;}</style></defs><title>logo_4</title><g id="Layer_2" data-name="Layer 2"><g id="Layer_1-2" data-name="Layer 1"><path class="cls-1" d="M5.66,20.06q0,2.64-2.75,2.64Q.5,22.7.5,20.06t2.41-2.64Q5.66,17.42,5.66,20.06Zm0,54.24H.5v-48H5.66Z"/><path class="cls-1" d="M36.14,74.3h-5V35.78a13.15,13.15,0,0,0-1.62-6.66q-1.62-2.82-3.66-2.82a9.1,9.1,0,0,0-6.24,2.34,9.85,9.85,0,0,0-3.24,5.94V74.3H11.18V26.42h5.16V31.1a10,10,0,0,1,9.48-5.88,9.75,9.75,0,0,1,7.26,3.18,10.32,10.32,0,0,1,3.06,7.38Z"/><path class="cls-1" d="M58.22,27.38H46.46V74.3H41.3V14.66a13.65,13.65,0,0,1,4.14-10A13.65,13.65,0,0,1,55.46.5h2.76V1.58H55.46q-3.72,0-6.36,3.84a15.91,15.91,0,0,0-2.64,9.24V26.3H58.22Z"/><path class="cls-1" d="M75.5,28.22q0,3.12-3.24,3.12T69,28.22a3.2,3.2,0,0,1,.72-1.92,5,5,0,0,0-3,4v44H61.58v-48h5.16v1.2A6.33,6.33,0,0,1,72.26,25Q75.5,25,75.5,28.22Z"/><path class="cls-1" d="M130.22,50.42a24.62,24.62,0,0,1-7.5,18.06,25.49,25.49,0,0,1-36.12,0,24.61,24.61,0,0,1-7.5-18.06,25.5,25.5,0,0,1,25.56-25.56,25.4,25.4,0,0,1,25.56,25.56Zm-5.16,0a26.22,26.22,0,0,0-5.94-17.34q-5.94-7.14-14.46-7.14T90.32,33.08a26.22,26.22,0,0,0-5.94,17.34A26.28,26.28,0,0,0,90.32,67.7q5.94,7.2,14.34,7.2t14.4-7.2A26.12,26.12,0,0,0,125.06,50.42Z"/><path class="cls-1" d="M159.26,74.3h-5V35.78a13.16,13.16,0,0,0-1.62-6.66Q151,26.3,148.94,26.3a9.1,9.1,0,0,0-6.24,2.34,9.85,9.85,0,0,0-3.24,5.94V74.3H134.3V26.42h5.16V31.1a10,10,0,0,1,9.48-5.88,9.75,9.75,0,0,1,7.26,3.18,10.32,10.32,0,0,1,3.06,7.38Z"/><path class="cls-1" d="M175.94,27.38H172.1V74.3h-5.16V27.38h-4.08V26.3h4.08V13.58h5.16V26.3h3.84Z"/></g></g></svg>